<svg xmlns="http://www.w3.org/2000/svg" width="28.591" height="28.591" viewBox="0 0 28.591 28.591">
  <g id="icon-ft-fb" transform="translate(-120 -380)">
    <path id="패스_350" data-name="패스 350" d="M144.324,380H124.267A4.267,4.267,0,0,0,120,384.267v20.057a4.267,4.267,0,0,0,4.267,4.267h10.751v-9.413H131.83v-3.692h3.188v-2.723c0-3.16,1.931-4.881,4.748-4.881a26.17,26.17,0,0,1,2.85.146v3.3h-1.956c-1.532,0-1.829.729-1.829,1.8v2.357h3.655l-.475,3.692h-3.18v9.413h5.492a4.267,4.267,0,0,0,4.267-4.267V384.267A4.267,4.267,0,0,0,144.324,380Z" transform="translate(0)" fill="#40448b"/>
  </g>
</svg>
