<svg xmlns="http://www.w3.org/2000/svg" width="28.707" height="28.707" viewBox="0 0 28.707 28.707">
  <g id="icon-ft-yt" transform="translate(651 -186)">
    <path id="패스_396" data-name="패스 396" d="M-626.578,186h-20.137A4.284,4.284,0,0,0-651,190.285v20.137a4.285,4.285,0,0,0,4.285,4.285h20.137a4.284,4.284,0,0,0,4.285-4.285V190.285A4.284,4.284,0,0,0-626.578,186Zm-1.714,14.668a32.931,32.931,0,0,1-.258,3.736,2.247,2.247,0,0,1-2.053,1.976c-.644.1-3.74.218-6.2.218l.011,0c-2.459,0-5.558-.12-6.2-.216a2.243,2.243,0,0,1-2.051-1.976,32.557,32.557,0,0,1-.259-3.736v-.2a32.477,32.477,0,0,1,.259-3.733,2.245,2.245,0,0,1,2.051-1.979c.643-.1,3.737-.218,6.195-.218s5.552.122,6.195.218a2.246,2.246,0,0,1,2.053,1.979,32.85,32.85,0,0,1,.258,3.733Z" transform="translate(0 0)" fill="#40448b"/>
    <path id="패스_397" data-name="패스 397" d="M-622.61,219.272l4.078-2.231-4.078-2.129Z" transform="translate(-16.226 -16.524)" fill="#40448b"/>
  </g>
</svg>
