<svg xmlns="http://www.w3.org/2000/svg" width="28.591" height="28.591" viewBox="0 0 28.591 28.591">
  <g id="icon-ft-blog" transform="translate(-203 -380)">
    <path id="패스_351" data-name="패스 351" d="M229.163,403.463v1.156s.544-.025.544.994v2.951h1.155V405.34S230.912,403.463,229.163,403.463Z" transform="translate(-14.998 -13.451)" fill="#40448b"/>
    <path id="패스_352" data-name="패스 352" d="M221.332,405.158a1.592,1.592,0,0,0-1.02.473v-1.9h-1.2v4.987h1.209v-.39a1.149,1.149,0,0,0,1.007.517,1.766,1.766,0,0,0,1.686-1.865S222.955,405.158,221.332,405.158Zm-.265,2.631a.769.769,0,1,1,.769-.768A.768.768,0,0,1,221.067,407.789Z" transform="translate(-9.239 -13.605)" fill="#40448b"/>
    <path id="패스_353" data-name="패스 353" d="M237.1,407.114s-1.979,0-1.979,1.846a1.789,1.789,0,0,0,1.979,1.824s2.024,0,2.024-1.824A1.817,1.817,0,0,0,237.1,407.114Zm0,2.614a.769.769,0,1,1,.769-.768A.768.768,0,0,1,237.1,409.728Z" transform="translate(-18.413 -15.544)" fill="#40448b"/>
    <path id="패스_354" data-name="패스 354" d="M248.615,407.57a1.309,1.309,0,0,0-1.005-.456,1.649,1.649,0,0,0-1.693,1.833s-.019,1.776,1.646,1.776a1.376,1.376,0,0,0,1.052-.457v.279s.085.876-.763.876h-.289v1.06h.466a1.738,1.738,0,0,0,1.75-1.87V407.23h-1.164Zm-.715,2.158a.769.769,0,1,1,.769-.768A.769.769,0,0,1,247.9,409.728Z" transform="translate(-24.603 -15.543)" fill="#40448b"/>
    <path id="패스_355" data-name="패스 355" d="M227.324,380H207.267A4.267,4.267,0,0,0,203,384.267v20.056a4.267,4.267,0,0,0,4.267,4.267h20.056a4.267,4.267,0,0,0,4.267-4.267V384.267A4.267,4.267,0,0,0,227.324,380Zm-.019,16.619a3.1,3.1,0,0,1-3.09,3.1h-4.609l-1.571,2.559a.325.325,0,0,1-.053.078.527.527,0,0,1-.913,0,.461.461,0,0,1-.05-.074l-1.572-2.559h-4.61a3.092,3.092,0,0,1-3.087-3.1v-7.354a3.094,3.094,0,0,1,3.087-3.1h13.378a3.1,3.1,0,0,1,3.09,3.1Z" fill="#40448b"/>
  </g>
</svg>
