<svg xmlns="http://www.w3.org/2000/svg" width="28.647" height="28.646" viewBox="0 0 28.647 28.646">
  <g id="icon-ft-talk" transform="translate(920.037 -180.995)">
    <path id="패스_403" data-name="패스 403" d="M-893.378,210.537l-1.32-3.826a.574.574,0,0,0-.226-.331.688.688,0,0,0-.357-.086h-.263a.626.626,0,0,0-.335.08.486.486,0,0,0-.2.267l-1.414,3.9c-.028.077-.054.157-.074.235a.627.627,0,0,0-.03.2.521.521,0,0,0,.01.117.455.455,0,0,0,.168.282.506.506,0,0,0,.323.1.456.456,0,0,0,.49-.312l.284-.833h1.761l.283.833a.466.466,0,0,0,.491.312.5.5,0,0,0,.363-.145.482.482,0,0,0,.154-.354,1.218,1.218,0,0,0-.02-.131A2.22,2.22,0,0,0-893.378,210.537Zm-2.7-1,.644-2.008h.014l.621,2.008Z" transform="translate(-12.846 -14.482)" fill="#40448b"/>
    <path id="패스_404" data-name="패스 404" d="M-883.794,210.521a.66.66,0,0,0-.37-.1h-1.827v-3.563a.545.545,0,0,0-.009-.145.524.524,0,0,0-.183-.309.542.542,0,0,0-.351-.114.525.525,0,0,0-.4.156.573.573,0,0,0-.15.412l0,3.855a1.559,1.559,0,0,0,.024.223.5.5,0,0,0,.207.337.716.716,0,0,0,.411.105h2.281a.651.651,0,0,0,.407-.125.422.422,0,0,0,.161-.353.7.7,0,0,0-.016-.1A.418.418,0,0,0-883.794,210.521Z" transform="translate(-18.863 -14.482)" fill="#40448b"/>
    <path id="패스_405" data-name="패스 405" d="M-900.573,207.337a.433.433,0,0,0,.158-.357.543.543,0,0,0-.007-.1.411.411,0,0,0-.192-.277.676.676,0,0,0-.366-.1h-3.16a.641.641,0,0,0-.406.127.416.416,0,0,0-.162.351c0,.038.01.074.016.106a.4.4,0,0,0,.189.277.678.678,0,0,0,.367.1h1.033l0,3.561a.579.579,0,0,0,.01.145.516.516,0,0,0,.184.31.556.556,0,0,0,.349.112.523.523,0,0,0,.4-.156.574.574,0,0,0,.15-.412v-3.561h1.033A.634.634,0,0,0-900.573,207.337Z" transform="translate(-8.775 -14.601)" fill="#40448b"/>
    <path id="패스_406" data-name="패스 406" d="M-895.666,180.995h-20.1a4.276,4.276,0,0,0-4.276,4.276v20.1a4.276,4.276,0,0,0,4.276,4.276h20.1a4.276,4.276,0,0,0,4.276-4.276v-20.1A4.276,4.276,0,0,0-895.666,180.995Zm-10.048,20.555a11.975,11.975,0,0,1-1.709-.125l-3.848,2.6a.277.277,0,0,1-.165.063.271.271,0,0,1-.194-.08.277.277,0,0,1-.068-.285l.9-3.341c-2.645-1.335-4.407-3.669-4.407-6.333,0-4.143,4.252-7.5,9.5-7.5s9.5,3.357,9.5,7.5S-900.47,201.55-905.714,201.55Z" fill="#40448b"/>
    <path id="패스_407" data-name="패스 407" d="M-874.867,210.473l-1.329-2.105,1.124-1.227a1.017,1.017,0,0,0,.13-.183.431.431,0,0,0,.05-.208.175.175,0,0,1,0-.046c0-.022-.007-.038-.008-.042a.409.409,0,0,0-.182-.267.56.56,0,0,0-.328-.1.406.406,0,0,0-.228.061,1.208,1.208,0,0,0-.208.188l-1.717,1.974,0-1.656a.546.546,0,0,0-.011-.145.506.506,0,0,0-.183-.309.538.538,0,0,0-.349-.114.527.527,0,0,0-.4.156.58.58,0,0,0-.148.412V210.9a.68.68,0,0,0,.01.145.515.515,0,0,0,.183.31.559.559,0,0,0,.351.112.527.527,0,0,0,.4-.156.581.581,0,0,0,.15-.412l-.006-1.132.6-.626,1.26,2.028a.722.722,0,0,0,.215.239.552.552,0,0,0,.273.059.635.635,0,0,0,.4-.127.5.5,0,0,0,.164-.42.21.21,0,0,1,0-.035c0-.017-.006-.03-.008-.034a1.122,1.122,0,0,0-.157-.317Z" transform="translate(-23.685 -14.482)" fill="#40448b"/>
  </g>
</svg>
