<?xml version="1.0" encoding="utf-8"?>
<!-- Generator: Adobe Illustrator 22.0.1, SVG Export Plug-In . SVG Version: 6.00 Build 0)  -->
<svg version="1.1" id="Layer_1" xmlns="http://www.w3.org/2000/svg" xmlns:xlink="http://www.w3.org/1999/xlink" x="0px" y="0px"
	 viewBox="0 0 1440 773" style="enable-background:new 0 0 1440 773;" xml:space="preserve">
<style type="text/css">
	.st0{fill:#F9F9F9;}
	.st1{clip-path:url(#SVGID_2_);}
	.st2{fill:#E9ECEF;}
	.st3{fill:#009BA9;}
	.st4{fill:#0C1157;}
	.st5{opacity:0.4;}
	.st6{clip-path:url(#SVGID_4_);}
	.st7{fill:#111987;}
</style>
<rect x="-5.9" y="343.5" class="st0" width="1447.9" height="429.5"/>
<g>
	<g>
		<g>
			<defs>
				<rect id="SVGID_1_" x="-6" y="0" width="1448" height="773"/>
			</defs>
			<clipPath id="SVGID_2_">
				<use xlink:href="#SVGID_1_"  style="overflow:visible;"/>
			</clipPath>
			<g class="st1">
				<path class="st2" d="M1441.4,58.5L10.1,183v413.8L1441.2,703L1441.4,58.5z"/>
				<path class="st3" d="M-6,77.1L1442,198v401.2L-5.8,714.8L-6,77.1z"/>
				<path class="st4" d="M-6,58.5l1448,120.9v401.2L-5.8,696.2L-6,58.5z"/>
				<g class="st5">
					<g>
						<defs>
							<polygon id="SVGID_3_" points="-6,58.5 1442,179.4 1442,580.6 -5.8,695.7 							"/>
						</defs>
						<clipPath id="SVGID_4_">
							<use xlink:href="#SVGID_3_"  style="overflow:visible;"/>
						</clipPath>
						<g class="st6">
							<path class="st7" d="M-50.7,603.2l21.2-2c1.3,7.1,3.8,12.4,7.8,15.7c3.9,3.3,9.2,5,15.8,5c7,0,12.3-1.5,15.8-4.4
								s5.4-6.4,5.4-10.4c0-2.6-0.8-4.8-2.3-6.5c-1.5-1.8-4.1-3.3-7.8-4.7c-2.6-0.9-8.4-2.5-17.4-4.8c-11.7-2.9-19.9-6.5-24.6-10.7
								c-6.6-6-10-13.2-10-21.7c0-5.5,1.6-10.6,4.7-15.5c3.1-4.8,7.6-8.4,13.5-10.9s13-3.8,21.3-3.8c13.6,0,23.7,2.9,30.6,8.9
								s10.5,13.9,10.8,23.7l-21.8,1c-0.9-5.6-2.9-9.5-6-12c-3.1-2.4-7.7-3.6-13.8-3.6c-6.3,0-11.3,1.3-14.9,3.9
								c-2.3,1.7-3.5,3.9-3.5,6.7c0,2.6,1.1,4.8,3.2,6.6c2.7,2.3,9.4,4.8,20.1,7.2c10.6,2.5,18.5,5.1,23.5,7.8
								c5.1,2.6,9,6.3,11.9,11s4.3,10.4,4.3,17.2c0,6.2-1.7,12-5.1,17.3c-3.5,5.4-8.3,9.4-14.5,12.1c-6.3,2.6-14.1,3.9-23.5,3.9
								c-13.6,0-24.1-3.2-31.4-9.4C-44.9,624.4-49.2,615.2-50.7,603.2z"/>
							<path class="st7" d="M96.8,613.4l20.6,3.5c-2.6,7.5-6.9,13.3-12.6,17.3c-5.7,3.9-12.9,6-21.5,6c-13.6,0-23.7-4.4-30.2-13.3
								c-5.1-7.1-7.8-16.1-7.8-26.9c0-13,3.4-23.1,10.2-30.5c6.8-7.3,15.3-11,25.7-11c11.6,0,20.8,3.8,27.5,11.5
								c6.7,7.7,10,19.5,9.7,35.3H66.6c0.2,6.1,1.8,10.9,5,14.3c3.2,3.4,7.2,5.1,11.9,5.1c3.2,0,6-0.9,8.1-2.6
								C93.8,620.3,95.7,617.3,96.8,613.4z M98,592.5c-0.2-6-1.7-10.6-4.7-13.6c-2.9-3.1-6.6-4.7-10.8-4.7c-4.5,0-8.2,1.7-11.2,4.9
								c-2.9,3.3-4.4,7.8-4.4,13.4L98,592.5L98,592.5z"/>
							<path class="st7" d="M126.8,598.1c0-6.9,1.7-13.5,5.1-20c3.4-6.4,8.2-11.3,14.4-14.7s13.1-5.1,20.8-5.1
								c11.8,0,21.5,3.8,29.1,11.5c7.5,7.7,11.3,17.4,11.3,29.1c0,11.8-3.8,21.6-11.5,29.4c-7.6,7.8-17.3,11.7-28.8,11.7
								c-7.2,0-14-1.6-20.5-4.8s-11.5-8-14.9-14.2C128.5,614.8,126.8,607.1,126.8,598.1z M148.1,599.2c0,7.8,1.8,13.7,5.5,17.8
								s8.2,6.2,13.6,6.2c5.4,0,10-2,13.6-6.2c3.6-4.1,5.5-10.1,5.5-17.9c0-7.7-1.8-13.6-5.5-17.6c-3.7-4.1-8.2-6.2-13.6-6.2
								c-5.4,0-10,2-13.6,6.2C149.9,585.5,148.1,591.5,148.1,599.2z"/>
							<path class="st7" d="M218.4,560.1h19.1v10.7c6.8-8.3,14.9-12.4,24.3-12.4c5,0,9.3,1.1,13,3.1s6.7,5.2,9,9.3
								c3.5-4.1,7.2-7.3,11.1-9.3s8.2-3.1,12.7-3.1c5.7,0,10.6,1.1,14.5,3.5c4,2.3,6.9,5.7,8.9,10.3c1.4,3.3,2.1,8.7,2.1,16.2v50
								h-20.7v-44.7c0-7.8-0.7-12.7-2.1-15c-1.9-2.9-4.8-4.4-8.8-4.4c-2.9,0-5.7,0.9-8.1,2.6c-2.6,1.7-4.4,4.4-5.5,7.8
								c-1.1,3.4-1.7,8.8-1.7,16.1v37.5h-20.7v-42.8c0-7.6-0.4-12.5-1.1-14.7s-1.9-3.8-3.4-4.9c-1.6-1.1-3.6-1.6-6.3-1.6
								c-3.2,0-6,0.8-8.6,2.6c-2.6,1.7-4.4,4.2-5.5,7.5c-1.1,3.2-1.7,8.6-1.7,16.1v38h-20.7v-78.3L218.4,560.1L218.4,560.1z"/>
							<path class="st7" d="M401.7,638.3v-11.7c-2.9,4.1-6.6,7.5-11.2,9.9c-4.7,2.4-9.5,3.6-14.7,3.6c-5.3,0-10-1.1-14.2-3.5
								c-4.1-2.3-7.2-5.6-9-9.7c-1.9-4.1-2.8-10-2.8-17.3v-49.5h20.7v36c0,11,0.4,17.7,1.1,20.2c0.8,2.5,2.1,4.4,4.1,5.9
								c2,1.4,4.6,2.2,7.7,2.2c3.5,0,6.7-1,9.5-2.9c2.8-2,4.7-4.4,5.7-7.2s1.6-9.9,1.6-21.1v-33h20.7v78.2h-19.2L401.7,638.3
								L401.7,638.3z"/>
							<path class="st7" d="M509.7,638.3H489v-39.9c0-8.4-0.5-13.9-1.4-16.4s-2.3-4.4-4.3-5.8c-2-1.4-4.4-2-7.2-2
								c-3.6,0-6.8,1-9.6,2.9c-2.9,2-4.8,4.6-5.9,7.8s-1.6,9.2-1.6,17.9v35.4h-20.7V560h19.2v11.5c6.8-8.8,15.4-13.3,25.8-13.3
								c4.6,0,8.7,0.8,12.5,2.5s6.6,3.8,8.6,6.3c2,2.6,3.3,5.4,4.1,8.7c0.8,3.2,1.1,7.8,1.1,13.9v48.7L509.7,638.3L509.7,638.3z"/>
							<path class="st7" d="M565.4,638.3v-108h21.2l44.2,72.1v-72.1H651v108h-21.9l-43.5-70.4v70.4H565.4z"/>
							<path class="st7" d="M670.1,549.5v-19.2h20.7v19.2H670.1z M670.1,638.3v-78.2h20.7v78.2H670.1z"/>
							<path class="st7" d="M706.3,643.4l23.6,2.9c0.4,2.7,1.3,4.7,2.7,5.7c2,1.5,5,2.2,9.3,2.2c5.4,0,9.4-0.8,12.1-2.4
								c1.8-1.1,3.2-2.8,4.1-5.2c0.6-1.7,1-4.9,1-9.5v-11.4c-6.2,8.4-14,12.7-23.4,12.7c-10.5,0-18.8-4.4-25-13.3
								c-4.8-7-7.2-15.8-7.2-26.2c0-13.1,3.2-23.1,9.4-30c6.3-6.9,14.2-10.4,23.5-10.4c9.6,0,17.6,4.2,23.9,12.7v-11h19.4v70.2
								c0,9.2-0.8,16.1-2.3,20.7c-1.5,4.6-3.7,8.1-6.4,10.8c-2.7,2.6-6.4,4.7-11,6.1c-4.6,1.5-10.4,2.2-17.4,2.2
								c-13.3,0-22.6-2.3-28.2-6.8c-5.6-4.5-8.3-10.3-8.3-17.3C706.2,645.2,706.3,644.4,706.3,643.4z M724.8,597.6
								c0,8.3,1.6,14.4,4.8,18.2s7.2,5.8,11.9,5.8c5.1,0,9.3-2,12.8-6c3.5-3.9,5.2-9.8,5.2-17.6c0-8.1-1.7-14.1-5-18
								s-7.5-5.9-12.7-5.9c-5,0-9,2-12.3,5.8C726.4,583.8,724.8,589.7,724.8,597.6z"/>
							<path class="st7" d="M817.2,530.3V570c6.7-7.8,14.6-11.7,23.9-11.7c4.7,0,9,0.9,12.9,2.6c3.8,1.7,6.7,4,8.7,6.8
								c2,2.7,3.2,5.8,4,9.1c0.7,3.3,1.1,8.5,1.1,15.5v45.8H847v-41.3c0-8.2-0.4-13.4-1.2-15.6c-0.8-2.2-2.2-4-4.1-5.3
								c-2-1.3-4.4-2-7.5-2c-3.5,0-6.5,0.8-9.2,2.5s-4.7,4.2-6,7.5c-1.3,3.4-1.9,8.4-1.9,14.9V638h-20.7V530L817.2,530.3
								L817.2,530.3z"/>
							<path class="st7" d="M920.8,560.1v16.5h-14.2v31.5c0,6.4,0.2,10.1,0.4,11.2c0.3,1.1,0.9,2,1.8,2.6c1,0.7,2.1,1.1,3.5,1.1
								c1.9,0,4.7-0.7,8.3-2l1.7,16.1c-4.8,2-10.3,3.1-16.4,3.1c-3.7,0-7.1-0.6-10.1-1.9c-3-1.3-5.2-2.9-6.6-4.8
								c-1.4-2-2.3-4.7-2.9-8.1c-0.5-2.4-0.7-7.2-0.7-14.6v-34.1h-9.5v-16.5h9.5v-15.5l20.7-12.1v27.6L920.8,560.1L920.8,560.1
								L920.8,560.1z"/>
							<path class="st7" d="M969.3,638.3v-108h32.6l19.6,73.7l19.4-73.7h32.7v108h-20.3v-85l-21.4,85H1011l-21.3-85v85H969.3z"/>
							<path class="st7" d="M1106.7,583.9l-18.8-3.4c2.1-7.5,5.7-13.1,10.9-16.8c5.1-3.6,12.8-5.4,23-5.4c9.2,0,16.1,1.1,20.6,3.2
								c4.5,2.2,7.7,5,9.5,8.3c1.8,3.4,2.8,9.5,2.8,18.5l-0.2,24.1c0,6.9,0.3,11.9,1,15.2c0.7,3.2,1.9,6.8,3.7,10.5h-20.4
								c-0.5-1.4-1.2-3.4-2-6.1c-0.4-1.2-0.6-2-0.8-2.4c-3.5,3.5-7.3,6-11.3,7.8c-4,1.7-8.3,2.6-12.9,2.6c-8.1,0-14.4-2.2-19-6.6
								c-4.7-4.4-6.9-9.9-6.9-16.6c0-4.4,1-8.4,3.2-11.8c2.1-3.5,5.1-6.1,8.9-7.9c3.8-1.8,9.3-3.5,16.4-4.8
								c9.6-1.8,16.4-3.5,20.1-5.1v-2c0-4-1-6.8-2.9-8.5c-2-1.7-5.7-2.6-11.1-2.6c-3.7,0-6.6,0.8-8.6,2.2
								C1109.7,577.8,1108,580.3,1106.7,583.9z M1134.4,600.8c-2.6,0.9-6.9,2-12.6,3.2s-9.5,2.4-11.2,3.6c-2.7,1.9-4.1,4.4-4.1,7.3
								c0,2.9,1.1,5.4,3.2,7.5c2.2,2.1,4.9,3.2,8.2,3.2c3.7,0,7.3-1.2,10.7-3.7c2.5-1.9,4.1-4.1,4.9-6.9c0.5-1.7,0.8-5.1,0.8-10.1
								L1134.4,600.8L1134.4,600.8z"/>
							<path class="st7" d="M1191.2,638.3h-20.7v-78.2h19.2v11.1c3.3-5.3,6.3-8.7,8.9-10.4s5.6-2.5,9-2.5c4.8,0,9.3,1.3,13.7,3.9
								l-6.4,18c-3.5-2.3-6.7-3.4-9.7-3.4c-2.9,0-5.4,0.8-7.4,2.4c-2,1.6-3.6,4.4-4.8,8.7c-1.1,4.1-1.7,12.9-1.7,26.2L1191.2,638.3
								L1191.2,638.3z"/>
							<path class="st7" d="M1225.5,638.3v-108h20.7v57.3l24.2-27.5h25.5l-26.7,28.6l28.7,49.6h-22.3l-19.7-35.1l-9.7,10.1v25
								L1225.5,638.3L1225.5,638.3z"/>
							<path class="st7" d="M1351.6,613.4l20.6,3.5c-2.6,7.5-6.9,13.3-12.6,17.3c-5.7,3.9-12.9,6-21.5,6c-13.6,0-23.7-4.4-30.2-13.3
								c-5.1-7.1-7.8-16.1-7.8-26.9c0-13,3.4-23.1,10.2-30.5c6.8-7.3,15.3-11,25.7-11c11.6,0,20.8,3.8,27.5,11.5s10,19.5,9.7,35.3
								h-51.9c0.2,6.1,1.8,10.9,5,14.3c3.2,3.4,7.2,5.1,11.9,5.1c3.2,0,6-0.9,8.1-2.6C1348.6,620.3,1350.5,617.3,1351.6,613.4z
								 M1352.8,592.5c-0.2-6-1.7-10.6-4.7-13.6c-2.9-3.1-6.6-4.7-10.8-4.7c-4.5,0-8.2,1.7-11.2,4.9c-2.9,3.3-4.4,7.8-4.4,13.4
								L1352.8,592.5L1352.8,592.5z"/>
							<path class="st7" d="M1422.3,560.1v16.5h-14.2v31.5c0,6.4,0.2,10.1,0.4,11.2c0.3,1.1,0.9,2,1.8,2.6c1,0.7,2.1,1.1,3.5,1.1
								c1.9,0,4.7-0.7,8.3-2l1.7,16.1c-4.8,2-10.3,3.1-16.4,3.1c-3.7,0-7.1-0.6-10.1-1.9c-3-1.3-5.2-2.9-6.5-4.8
								c-1.4-2-2.3-4.7-2.9-8.1c-0.5-2.4-0.7-7.2-0.7-14.6v-34.1h-9.5v-16.5h9.5v-15.5l20.7-12.1v27.6L1422.3,560.1L1422.3,560.1
								L1422.3,560.1z"/>
						</g>
					</g>
				</g>
			</g>
		</g>
	</g>
</g>
</svg>
